PathFileType	4	(X/Y/Z)	OpenSim_Sub05_CSStiffKnee_Gyro.trc
DataRate	CameraRate	NumFrames	NumMarkers	Units	OrigDataRate	OrigDataStartFrame	OrigNumFrames
100	100	27	8	m	100	8437	11248
Frame#	Time	torso_imu_offset_imu	pelvis_imu_offset_imu	tibia_r_imu_offset_imu	femur_r_imu_offset_imu	tibia_l_imu_offset_imu	femur_l_imu_offset_imu	toes_r_imu_offset_imu	toes_l_imu_offset_imu
				X1	Y1	Z1	X2	Y2	Z2	X3	Y3	Z3	X4	Y4	Z4	X5	Y5	Z5	X6	Y6	Z6	X7	Y7	Z7	X8		Y8	Z8	

8437	84.36000000	-0.41909501	0.21315149	-0.26050324	-0.53791360	-0.28135902	0.44498243	-0.44808441	-0.17534655	-2.30057468	-0.49653890	0.79879465	1.28275643	-0.22866785	-0.35102728	1.85955601	0.33154547	-0.40338234	0.04073219	-0.34450958	-3.78554669	-0.20633303	0.01499767	-2.35184705	0.05489516
8438	84.37000000	-0.42388053	0.16640351	-0.26541798	-0.58403952	-0.16232290	0.42886639	-0.58842046	-0.25854536	-2.52491483	-0.25963407	0.90147822	1.58032851	-0.87886133	-0.52274697	1.83144877	0.30687618	-0.37869395	0.04797528	-0.51212883	-4.42950770	-0.09659815	-0.80765303	-0.60101090	0.61901657
8439	84.38000000	-0.43340999	0.08254174	-0.26620371	-0.59707545	-0.03885627	0.29667700	-0.75411400	-0.35506938	-2.70908800	-0.03986296	0.94128696	1.88393251	-0.70215235	-0.47956245	1.05137792	0.21829481	-0.21078136	0.15109493	-0.68404498	-5.16590965	-0.02259361	-0.10627856	-0.49128300	0.94196293
8440	84.39000000	-0.48677838	-0.03261673	-0.27267229	-0.56510281	-0.00907791	0.06592375	-0.95942030	-0.43329487	-2.81882579	-0.06807549	1.07947720	2.21796368	-0.03193404	-0.24112900	0.81412592	-0.01432769	-0.01434888	0.33502786	-0.97613724	-5.72513984	-0.06261305	0.25188512	-0.79524811	0.52999434
8441	84.40000000	-0.58614873	-0.13881894	-0.29280464	-0.49721704	-0.07375186	-0.24573399	-0.95827316	-0.40711326	-2.87667783	-0.27677285	1.42106435	2.51780576	-0.23897361	-0.23015982	0.91073902	-0.28859357	0.01879062	0.47539137	-0.91908719	-5.94071288	-0.15986807	-0.21362379	-0.50857345	0.03082623
8442	84.41000000	-0.68584295	-0.19918413	-0.33445664	-0.43804214	-0.17330342	-0.55084615	-0.47889880	-0.36906596	-2.89255565	-0.52091674	1.69848013	2.66056615	-0.67367790	-0.33484346	0.89379611	-0.41246917	0.03302001	0.53634177	-1.27524200	-6.04753841	-0.34984718	-0.05898835	-0.35803584	0.03192989
8443	84.42000000	-0.75732184	-0.21523803	-0.39738842	-0.38319954	-0.24566684	-0.76525489	0.43365796	-0.42154879	-2.93251684	-0.74514968	1.70722538	2.66767640	-0.53561365	-0.33544483	0.91914280	-0.36892375	0.13810357	0.53798243	-1.27990043	-5.68861825	-0.80962659	0.27567617	-0.37235532	0.10582498
8444	84.43000000	-0.75340555	-0.19766561	-0.47381568	-0.32629660	-0.26454558	-0.85217114	1.31389280	-0.45992275	-2.96485250	-0.87789830	1.61272034	2.65616377	-0.22088800	-0.30118647	0.84441084	-0.38537246	0.15844733	0.49589275	-0.24601255	-4.86277348	-1.34330346	0.10177967	-0.34030849	0.02363121
8445	84.44000000	-0.67879197	-0.14523578	-0.58101911	-0.25734683	-0.21123945	-0.83250178	1.80537281	-0.62709644	-2.90806204	-0.83230649	1.54651862	2.60698378	-0.20096246	-0.28328167	0.71886024	-0.56703302	0.08310211	0.43618196	0.27201299	-4.39552270	-1.55616080	-0.11107248	-0.29765521	-0.03092507
8446	84.45000000	-0.56990318	-0.08161577	-0.69846213	-0.17526233	-0.09502698	-0.77931524	1.87340307	-0.78123962	-2.73974072	-0.72962473	1.48231307	2.48349849	-0.37090440	-0.31543760	0.80295070	-0.73060169	-0.00552115	0.42489542	0.55330635	-3.84539722	-1.45889296	-0.09180474	-0.23829280	-0.00547381
8447	84.46000000	-0.47395867	-0.04014878	-0.77786988	-0.10926337	0.03420611	-0.71705188	1.56209755	-0.67507198	-2.43941796	-0.64084060	1.23629848	2.32646788	-0.28683567	-0.31752118	0.80025882	-0.75439397	-0.11522202	0.41609962	-0.18550215	-2.92981630	-1.25550498	-0.09523656	-0.22250460	0.04191568
8448	84.47000000	-0.42694476	-0.02797975	-0.80117887	-0.04035771	0.13192579	-0.63868361	0.77026387	-0.53311086	-2.01514246	-0.28519012	0.91384013	2.17143260	0.24505446	-0.24216069	0.63915351	-0.69148567	-0.23196415	0.40556110	-0.89986638	-1.34518470	-0.95223701	-0.14989041	-0.21622054	0.05478723
8449	84.48000000	-0.39475267	-0.02047485	-0.75689141	0.01627295	0.17360648	-0.52079869	0.01999975	-0.43371059	-1.50645358	0.19614519	0.72882499	2.07516921	0.41564283	-0.17687080	0.61180862	-0.63160499	-0.31219049	0.42516322	-0.68148295	-0.07310166	-0.78331473	-0.17106030	-0.17888788	0.06125965
8450	84.49000000	-0.34969119	-0.02067071	-0.69970188	0.02690755	0.17912491	-0.35789639	-0.95129797	-0.33155589	-0.80879860	0.43458524	0.57964380	2.07793355	0.03629960	-0.18516424	0.65332837	-0.57205462	-0.37200512	0.43846363	-0.56421819	0.57029856	-0.70702557	-0.16492738	-0.16073295	0.07262480
8451	84.50000000	-0.31052306	-0.04163680	-0.63458131	0.00250247	0.14140252	-0.17211212	-2.56307808	-0.12774798	0.14750471	0.54571596	0.47533706	2.09700248	-0.08427022	-0.18043372	0.64723603	-0.45455490	-0.41092701	0.46212863	0.00946447	1.62042326	-0.45191849	-0.14310306	-0.15772083	0.07292878
8452	84.51000000	-0.28504495	-0.09850995	-0.53294313	-0.01797683	0.07109215	0.00528324	-3.06045967	0.10394191	0.98775575	0.71373002	0.46398209	2.01508066	0.01968028	-0.12854961	0.64173526	-0.30780677	-0.39943134	0.48384798	0.15294457	2.09136412	-0.16812458	-0.13843850	-0.15715722	0.06121456
8453	84.52000000	-0.28845091	-0.14776452	-0.42972141	-0.00367617	0.01146901	0.14002126	-2.35834273	0.23302969	1.43972129	0.89483068	0.46429546	1.86630476	-0.03455877	-0.12023285	0.62832169	-0.21242039	-0.38724277	0.51577721	-0.09150449	2.36958926	0.10887845	-0.08799155	-0.14971667	0.05424596
8454	84.53000000	-0.31843680	-0.16718984	-0.33996797	0.03255715	-0.02832282	0.22018582	-1.88455341	0.23490757	1.71327373	1.02197124	0.42357645	1.68148616	-0.04509846	-0.13046412	0.60437812	-0.18991404	-0.40332732	0.53048920	-0.09462784	2.84379520	0.39061542	-0.02735829	-0.12038184	0.05727259
8455	84.54000000	-0.34704939	-0.20326061	-0.27126735	0.06747008	-0.04152021	0.28363333	-1.30745313	0.12384917	2.03969504	1.12035325	0.34713885	1.47066883	0.07912849	-0.13629293	0.58848383	-0.18128433	-0.39067082	0.53209014	-0.11605588	3.16108180	0.63269913	-0.00452492	-0.10557070	0.08396019
8456	84.55000000	-0.40187338	-0.22731697	-0.19539751	0.10964227	-0.02901695	0.31007310	-0.41600783	-0.00144049	2.46563835	1.18810377	0.25101540	1.25786601	0.16658662	-0.12827203	0.58775294	-0.14277913	-0.35730754	0.56077388	-0.02044188	3.46358761	0.85361280	0.00892008	-0.09048861	0.11150039
8457	84.56000000	-0.42979309	-0.22865902	-0.11214647	0.15104294	-0.01052363	0.30875614	0.12488758	-0.07197821	2.93936742	1.22433729	0.16566669	1.05726827	0.15927728	-0.10105546	0.59392703	-0.10192465	-0.35277378	0.56814560	0.04398014	3.63696350	1.04473779	0.00233458	-0.06920999	0.13266275
8458	84.57000000	-0.40912702	-0.23221031	-0.05932086	0.18286057	0.00226033	0.31071847	0.43303575	-0.02866592	3.37468523	1.25013733	0.11001485	0.90606605	0.14215839	-0.07505552	0.60795970	-0.07736066	-0.36457935	0.55541411	0.05462569	3.75924399	1.23840429	-0.01775615	-0.05479031	0.15546323
8459	84.58000000	-0.37101058	-0.24260885	-0.03530897	0.23027890	0.02477568	0.29014562	0.85352805	0.12591538	3.70750516	1.26590078	0.05504190	0.80035389	0.08872540	-0.06387048	0.64045905	-0.03106223	-0.33936583	0.54833473	0.06822472	3.94324015	1.43817081	-0.02454697	-0.03918677	0.16827621
8460	84.59000000	-0.31313117	-0.24450905	-0.02998789	0.27051435	0.05975359	0.28874918	1.11843706	0.32124863	3.96371436	1.27525591	-0.00519234	0.69581412	0.02825762	-0.05972082	0.67360996	0.01096381	-0.30622532	0.55583348	0.13832882	4.20308278	1.62975322	-0.02959885	-0.03090487	0.16465605
8461	84.60000000	-0.27203461	-0.24191047	-0.02309759	0.29495559	0.09822760	0.28330305	1.16453521	0.53751920	4.19611426	1.25244281	-0.06518592	0.57253951	0.04279074	-0.05583448	0.68659423	0.00457336	-0.30842752	0.56582471	0.27245838	4.49552671	1.79836455	-0.02658512	-0.02420788	0.15320072
8462	84.61000000	-0.23976263	-0.24483382	-0.02102863	0.32369030	0.14578237	0.24653913	1.23930874	0.71619018	4.39636409	1.17550523	-0.14435459	0.43265535	0.08615905	-0.04944089	0.68448748	-0.02354901	-0.29597473	0.59970891	0.43490166	4.74935987	1.92749194	-0.01677128	-0.01496899	0.13228581
8463	84.62000000	-0.21976599	-0.24783249	-0.01827927	0.35659283	0.19958653	0.21976129	1.29169171	0.77266856	4.59419588	1.02417128	-0.25614096	0.26988748	0.12588093	-0.05563597	0.66210721	-0.06301334	-0.27976206	0.63314028	0.55254023	4.90133292	1.99654981	-0.02559025	-0.01538154	0.11437304
